<?xml version="1.0" encoding="UTF-8" standalone="no"?>
<svg
   version="1.0"
   width="409.66113pt"
   height="270.39999pt"
   viewBox="0 0 409.66113 270.39999"
   preserveAspectRatio="xMidYMid"
   id="svg120"
   sodipodi:docname="picsvg_download.svg"
   inkscape:export-filename="logo.svg"
   inkscape:export-xdpi="96"
   inkscape:export-ydpi="96"
   inkscape:version="1.2.2 (b0a8486, 2022-12-01)"
   xmlns:inkscape="http://www.inkscape.org/namespaces/inkscape"
   xmlns:sodipodi="http://sodipodi.sourceforge.net/DTD/sodipodi-0.dtd"
   xmlns="http://www.w3.org/2000/svg"
   xmlns:svg="http://www.w3.org/2000/svg">
  <defs
     id="defs124" />
  <sodipodi:namedview
     id="namedview122"
     pagecolor="#ffffff"
     bordercolor="#000000"
     borderopacity="0.25"
     inkscape:showpageshadow="2"
     inkscape:pageopacity="0.0"
     inkscape:pagecheckerboard="0"
     inkscape:deskcolor="#d1d1d1"
     inkscape:document-units="pt"
     showgrid="false"
     inkscape:zoom="0.59664179"
     inkscape:cx="600.02502"
     inkscape:cy="409.79362"
     inkscape:window-width="1366"
     inkscape:window-height="699"
     inkscape:window-x="0"
     inkscape:window-y="0"
     inkscape:window-maximized="1"
     inkscape:current-layer="svg120" />
  <g
     transform="matrix(0.05,0,0,-0.05,-21.888966,641.2)"
     fill="#607466"
     stroke="none"
     id="g118">
    <path
       d="m 4110,12791 c -394,-73 -895,-294 -1149,-507 l -69,-58 79,-54 c 95,-65 741,-450 779,-465 15,-6 59,25 100,71 85,94 274,194 401,213 101,15 85,-34 148,445 55,414 60,384 -54,382 -52,-1 -158,-13 -235,-27 z"
       id="path80" />
    <path
       d="m 4553,12757 c -6,-37 -26,-184 -43,-327 -55,-472 -55,-430 -5,-430 212,-3 479,-227 567,-476 46,-127 -6,-114 598,-154 264,-17 606,-41 760,-52 154,-12 309,-19 344,-15 l 64,7 -60,118 c -388,756 -1208,1306 -2060,1383 l -153,13 z"
       id="path82" />
    <path
       d="m 2668,12016 c -270,-282 -261,-205 -137,-1106 124,-905 108,-832 189,-860 87,-30 101,-21 687,449 l 409,328 -49,75 c -102,153 -132,366 -83,578 29,124 49,105 -333,332 -144,85 -310,184 -371,220 -178,107 -195,106 -312,-16 z"
       id="path84" />
    <path
       d="m 7870,11875 c -612,-218 -467,-1115 180,-1115 533,0 782,634 388,988 -153,137 -390,191 -568,127 z"
       id="path86" />
    <path
       d="m 2285,11515 c -183,-227 -403,-972 -405,-1368 0,-118 -22,-104 293,-189 l 164,-43 91,77 c 61,52 91,94 92,128 3,84 -187,1420 -202,1420 -7,0 -22,-11 -33,-25 z"
       id="path88" />
    <path
       d="m 5110,11202 c -7,-54 -40,-155 -72,-224 -70,-146 -90,-116 225,-329 243,-163 248,-165 287,-129 84,78 236,102 361,57 60,-22 72,-17 261,117 109,77 311,214 448,305 138,91 252,168 255,170 8,7 -872,72 -1245,92 -209,10 -408,24 -443,30 -62,10 -63,9 -77,-89 z"
       id="path90" />
    <path
       d="m 6706,10916 c -664,-436 -659,-432 -614,-519 25,-49 30,-95 21,-189 l -11,-124 164,-111 c 90,-61 289,-196 442,-302 298,-204 326,-216 341,-146 41,179 53,261 64,441 19,317 -63,863 -157,1043 l -28,52 z"
       id="path92" />
    <path
       d="m 4781,10687 c -60,-37 -162,-78 -225,-91 l -116,-24 v -456 c 0,-338 6,-456 24,-456 13,0 62,-19 109,-41 l 86,-42 95,66 c 53,36 169,120 257,186 89,67 219,161 290,209 l 129,88 v 135 136 l -248,166 c -136,92 -258,172 -270,179 -12,6 -71,-19 -131,-55 z"
       id="path94" />
    <path
       d="m 3850,10696 c -46,-26 -71,-46 -547,-428 -191,-153 -359,-286 -373,-296 -19,-15 -16,-38 15,-108 30,-68 36,-113 27,-184 l -13,-94 346,-84 c 710,-171 715,-171 715,-92 0,83 112,208 210,234 l 90,24 v 454 453 l -89,14 c -49,7 -139,40 -200,72 -124,66 -126,67 -181,35 z"
       id="path96" />
    <path
       d="m 910,10438 c -522,-67 -650,-772 -187,-1029 141,-78 377,-85 509,-15 557,296 301,1125 -322,1044 z"
       id="path98" />
    <path
       d="m 5092,9744 -377,-275 -4,-140 c -3,-76 -11,-153 -19,-171 -10,-24 54,-77 276,-228 l 289,-196 53,63 c 30,35 96,78 152,98 66,23 103,48 109,75 14,61 149,884 149,906 0,11 -27,30 -61,41 -33,12 -84,40 -113,62 -68,54 -28,75 -454,-235 z"
       id="path100" />
    <path
       d="m 6001,9971 c -12,-15 -51,-38 -87,-53 -78,-31 -93,-52 -94,-123 0,-31 -26,-206 -58,-390 -95,-545 -98,-484 22,-561 l 104,-66 121,53 c 66,30 166,79 221,109 55,30 199,106 320,170 121,63 264,142 317,176 l 98,61 -56,42 c -67,49 -400,279 -682,471 -165,112 -208,133 -226,111 z"
       id="path102" />
    <path
       d="m 1908,9798 c 18,-163 29,-171 222,-183 l 160,-11 -7,97 -7,97 -163,54 c -90,30 -176,59 -191,64 -23,9 -25,-12 -14,-118 z"
       id="path104" />
    <path
       d="m 1960,9494 c 0,-223 382,-940 653,-1224 l 114,-120 14,60 c 8,33 21,85 28,116 7,32 54,97 105,146 l 92,90 -50,184 c -27,101 -81,285 -118,409 l -68,224 -112,1 c -87,0 -129,11 -187,50 -57,39 -115,55 -257,70 -230,24 -214,25 -214,-6 z"
       id="path106" />
    <path
       d="m 2855,9458 c -27,-15 -30,-29 -16,-56 11,-20 38,-103 60,-184 23,-81 75,-263 116,-405 l 76,-256 115,-39 116,-39 108,85 c 158,126 647,544 648,556 9,80 -83,108 -1148,349 -22,5 -56,0 -75,-11 z"
       id="path108" />
    <path
       d="m 6870,9158 c -33,-21 -259,-144 -503,-272 l -442,-234 9,-71 c 6,-50 -6,-100 -40,-166 l -49,-95 158,-115 c 87,-63 166,-118 176,-121 47,-16 340,309 491,546 127,200 304,579 265,569 -3,-1 -32,-19 -65,-41 z"
       id="path110" />
    <path
       d="m 4059,8955 c -49,-47 -143,-130 -208,-185 -65,-55 -192,-165 -283,-245 l -166,-146 31,-74 c 36,-84 26,-211 -24,-306 -31,-60 -30,-62 68,-185 226,-282 386,-351 884,-384 l 210,-14 119,157 c 182,240 373,464 508,596 138,135 137,133 81,208 -23,31 -48,100 -55,153 l -14,97 -306,208 -307,208 -63,-30 c -132,-62 -174,-60 -354,14 -19,8 -64,-19 -121,-72 z"
       id="path112" />
    <path
       d="m 5630,8219 c -32,-10 -92,-13 -133,-6 -89,14 -361,-240 -612,-573 -167,-221 -163,-228 110,-169 334,73 634,200 930,393 176,115 181,127 84,196 -39,28 -108,79 -155,115 -87,67 -123,74 -224,44 z"
       id="path114" />
    <path
       d="m 3200,7838 c -57,-23 -53,-27 124,-119 148,-76 147,-76 60,41 -76,103 -98,112 -184,78 z"
       id="path116" />
  </g>
</svg>
